<?xml version="1.0" encoding="UTF-8"?>
<!-- edited with XML Explorer v2.0 by Mergesoft (www.mergesoft.com)-->
<svg width="400" height="300" viewBox="0 0 800 600">
<rect x="5" y="5" width="750" height="410" fill="none" stroke="purple" stroke-width="4"/>
<rect x="100" y="10" width="10" height="10" fill="red" stroke="red" stroke-width="0"/>
<text x="115" y="20" stroke="black" stroke-width="1">command 
<tspan stroke="red" stroke-width="2">S</tspan>
<tspan stroke="red" stroke-width="1"> path d="M5,300 S150,100 200,200...</tspan>
</text> 

<rect x="100" y="25" width="10" height="10" fill="blue" stroke="blue" stroke-width="0"/>
<text x="115" y="35" stroke="black" stroke-width="1">command 
<tspan stroke="blue" stroke-width="2">C</tspan>
<tspan stroke="blue" stroke-width="1"> path d="M5,300 C5,300 150,100 200,200...</tspan>
</text> 

<rect x="100" y="40" width="10" height="10" fill="yellow" stroke="yellow" stroke-width="0"/>
<text x="115" y="50" stroke="black" stroke-width="1">command 
<tspan stroke="#336655" stroke-width="2">Q</tspan>
<tspan stroke="#336655" stroke-width="1"> path d="M5,300 Q5,300 200,200...</tspan></text> 

<rect x="100" y="55" width="10" height="10" fill="purple" stroke="purple" stroke-width="0"/>
<text x="115" y="65" stroke="black" stroke-width="1">command 
<tspan stroke="purple" stroke-width="2">T</tspan>
<tspan stroke="purple" stroke-width="1"> path d="M5,300 T200,200...</tspan></text> 


<path d="M5,300 S150,100 200,200 S400,400 500,150 S650,350 740,250"
        fill="none" stroke="red" stroke-width="8"  />
<path d="M5,300 C5,300 150,100 200,200 C250,300 400,400 500,150 C600,-100 650,350 740,250"
        fill="none" stroke="blue" stroke-width="2"/>
<path d="M5,300 Q5,300 200,200 Q250,300 500,150 Q600,-100 740,250"
        fill="none" stroke="yellow" stroke-width="4"/>
<path d="M5,300 T200,200 T500,150 T740,250"
        fill="none" stroke="purple" stroke-width="1"/>
<circle cx="250" cy="300" r="5" fill="none" stroke="green" stroke-width="5"/>
<text x="255" y="300" stroke="black" stroke-width="1">(250,300)</text> 

<circle cx="600" cy="-100" r="5" fill="none" stroke="green" stroke-width="5"/>
<text x="565" y="15" stroke="black" stroke-width="1">(600,-100)</text> 

<circle cx="200" cy="200" r="5" fill="none" stroke="blue" stroke-width="5"/>
<text x="205" y="200" stroke="black" stroke-width="1">(200,200)</text> 

<circle cx="150" cy="100" r="5" fill="none" stroke="red" stroke-width="5"/>
<text x="155" y="100" stroke="black" stroke-width="1">(150,100)</text> 

<circle cx="400" cy="400" r="5" fill="none" stroke="red" stroke-width="5"/>
<text x="405" y="400" stroke="black" stroke-width="1">(400,400)</text> 

<circle cx="5" cy="300" r="5" fill="none" stroke="yellow" stroke-width="5"/>
<text x="10" y="300" stroke="black" stroke-width="1">(5,300)</text> 

<circle cx="500" cy="150" r="5" fill="none" stroke="blue" stroke-width="5"/>
<text x="505" y="150" stroke="black" stroke-width="1">(500,150)</text> 

<line x1="200" y1="200" x2="150" y2="100" stroke="black" stroke-width="2"/>
<line x1="500" y1="150" x2="400" y2="400" stroke="black" stroke-width="2"/>
<circle cx="740" cy="250" r="5" fill="none" stroke="blue" stroke-width="5"/>
<text x="690" y="220" stroke="black" stroke-width="1">(740,250)</text> 

<circle cx="650" cy="350" r="5" fill="none" stroke="red" stroke-width="5"/>
<text x="655" y="350" stroke="black" stroke-width="1">(650,350)</text> 

<line x1="650" y1="350" x2="740" y2="250" stroke="black" stroke-width="2"/>
<line x1="250" y1="300" x2="200" y2="200" stroke="#00ff00" stroke-width="2"/>
<line x1="600" y1="-100" x2="500" y2="150" stroke="#00ff00" stroke-width="2"/>


</svg>





